<svg xmlns="http://www.w3.org/2000/svg" width="137" height="50" viewBox="0 0 137 50">
  <g fill="none">
    <path fill="#caccb3" d="M15.8333333,23.1268116 L9.59057971,23.1268116 C3.95289855,23.1268116 3.06884058,25.1594203 2.26811594,27.7971014 C1.15942029,31.3804348 1.67391304,32.1884058 8.40217391,32.1884058 C14.1594203,32.1884058 14.6594203,32.2681159 14.2644928,33.5362319 C13.9021739,34.6630435 12.9202899,34.7644928 11.9746377,34.7644928 L6.49637681,34.7644928 C5.21014493,34.7644928 4.62318841,34.6449275 5.07971014,33.0942029 L0.608695652,33.0942029 L0.300724638,34.1014493 C-0.677536232,37.2608696 0.724637681,38.0434783 4.7826087,38.0434783 L10.2173913,38.0434783 C16.1594203,38.0434783 17.6884058,37.3985507 18.9130435,33.4710145 C20.2282609,29.2210145 18.7463768,28.8007246 11.7934783,28.8188406 C6.99637681,28.8405797 6.46376812,28.8188406 6.85507246,27.5289855 C7.09782609,26.7463768 7.89130435,26.4021739 8.89492754,26.4021739 L13.8188406,26.4021739 C15.8695652,26.4021739 15.8550725,26.8442029 15.5253623,27.9130435 L19.9963768,27.9130435 L20.1376812,27.4492754 C20.9275362,24.8768116 20.9855072,23.1268116 15.8333333,23.1268116 Z M38.6775362,23.2862319 L36.076087,31.7028986 C35.5036232,33.557971 34.6268116,34.2826087 32.7826087,34.2826087 L28.3514493,34.2826087 C26.5398551,34.2826087 26.0797101,33.557971 26.6521739,31.7028986 L29.2536232,23.2862319 L24.7826087,23.2862319 L21.884058,32.6702899 C20.7644928,36.2934783 22.1014493,38.0434783 26.2101449,38.0434783 L32.6086957,38.0434783 C36.7173913,38.0434783 39.1304348,36.307971 40.2427536,32.6847826 L43.1413043,23.3007246 L38.6775362,23.2862319 Z M62.0797101,28.2826087 C62.9637681,25.4202899 62.5978261,23.2862319 58.3478261,23.2862319 L46.1666667,23.2862319 L41.6666667,37.865942 L46.1376812,37.865942 L47.2681159,34.2028986 L56.1594203,34.2028986 C59.3188406,34.2028986 61.0398551,31.7028986 61.7101449,29.5289855 L62.0797101,28.2826087 Z M57.4347826,28.4637681 L57.2463768,29.0253623 C56.9782609,29.8913043 56.3623188,30.576087 55.3152174,30.576087 L48.384058,30.576087 L49.5181159,26.9130435 L56.0797101,26.9130435 C57.4311594,26.9130435 57.7391304,27.4746377 57.4347826,28.4637681 Z M78.6847826,32.0253623 L79.615942,29.0072464 L68.7463768,29.0072464 L69.4710145,26.6702899 L80.942029,26.6702899 L81.9891304,23.2862319 L66.0471014,23.2862319 L61.5434783,37.865942 L77.7536232,37.865942 L78.8405797,34.3623188 L67.1014493,34.3623188 L67.826087,32.0253623 L78.6847826,32.0253623 Z M98.4384058,23.2862319 L84.9492754,23.2862319 L80.4347826,37.865942 L84.9021739,37.865942 L86.0724638,34.0797101 L93.115942,34.0797101 C94.5036232,34.0797101 94.7898551,34.5833333 94.3188406,36.1123188 L93.7789855,37.865942 L98.2463768,37.865942 L99.0108696,35.3876812 C99.7536232,32.9927536 98.826087,32.4094203 97.5615942,32.1666667 L97.5615942,32.1268116 C99.7644928,31.6449275 100.561594,30.4963768 101.166667,28.5434783 L101.452899,27.615942 C102.278986,25 101.880435,23.2862319 98.4384058,23.2862319 Z M96.865942,28.442029 L96.7173913,28.923913 C96.3949275,29.9710145 95.8007246,30.4565217 94.5942029,30.4565217 L87.2028986,30.4565217 L88.2898551,26.9130435 L95.2898551,26.9130435 C96.6956522,26.9130435 97.2644928,27.1521739 96.865942,28.442029 Z"/>
    <path fill="#EC5800" d="M116.927536,0 L117.26087,0.282608696 C119.257246,2.04710145 119.539855,5.13768116 119.539855,6.75724638 C119.539855,7.35869565 119.503623,7.75724638 119.496377,7.8115942 L119.474638,8.00362319 L119.286232,7.97463768 C116.999664,7.52786095 114.866241,6.50107322 113.09058,4.99275362 C112.649745,4.59969463 112.232361,4.18110047 111.84058,3.73913043 L111.427536,4.06884058 C114.422495,7.13523864 114.926262,11.8544241 112.646084,15.4839367 C110.365907,19.1134494 105.89574,20.707848 101.833333,19.3405797 L101.757246,19.9528986 C103.794303,20.8391411 105.51577,22.3206385 106.695652,24.2028986 C108.192029,26.5905797 108.547101,29.2391304 107.695652,31.6594203 C106.036232,36.3695652 106.072464,40.2572464 107.807971,43.1775362 C110.163043,47.1376812 114.898551,47.9456522 114.945652,47.9565217 L114.945652,48.2789855 L119.173913,48.9818841 C129.920329,45.3145331 136.953559,34.9909186 136.433352,23.6478894 C135.913145,12.3048602 127.964516,2.6683343 116.927536,0 Z"/>
    <path fill="#caccb3" d="M118.452899,1.41304348 C117.895152,0.917926085 117.307052,0.458095348 116.692029,0.0362318841 C116.84058,0.15942029 116.992754,0.286231884 117.141304,0.398550725 C119.836957,2.78623188 119.315217,7.77536232 119.315217,7.77536232 C117.063953,7.32942189 114.963083,6.31826142 113.210145,4.83695652 C112.049707,3.84533083 111.095614,2.63517041 110.402174,1.27536232 C110.714908,2.06406042 111.12771,2.80929539 111.630435,3.49275362 C110.253223,2.48877353 108.6365,1.86407359 106.942029,1.68115942 C107.295847,1.76820277 107.644268,1.87587471 107.985507,2.00362319 C111.654872,3.39167746 114.02189,6.97478051 113.858884,10.8945205 C113.695878,14.8142606 111.039534,18.1884626 107.267592,19.2670634 C103.495649,20.3456642 99.4570186,18.8859144 97.2463768,15.6449275 C97.8880147,16.9341557 98.8088823,18.0641989 99.942029,18.9528986 C99.8478261,18.9528986 99.75,18.9528986 99.6557971,18.9528986 C98.0802395,18.9157977 96.5205512,19.2745758 95.1195652,19.9963768 C96.4137543,19.4910846 97.811153,19.3070855 99.192029,19.4601449 C104.48913,20.0615942 109.507246,25.9818841 107.525362,31.615942 C102.416667,46.134058 114.916667,48.1485507 114.916667,48.1485507 C114.916667,48.1485507 98.0652174,50.3224638 91.1268116,41.4746377 C98.3985507,53.5869565 119.684783,48.8985507 119.684783,48.8985507 C119.684783,48.8985507 105.778986,47.9021739 109.974638,31.4782609 C111.032609,27.3369565 108.84058,23.3586957 105.565217,21.0326087 C109.124034,21.1673678 112.469686,19.3380472 114.276892,16.2692782 C116.084098,13.2005092 116.061247,9.38746862 114.217391,6.34057971 C116.26526,8.0666636 118.690501,9.28673111 121.297101,9.90217391 C121.297101,9.90217391 121.65942,4.25362319 118.452899,1.41304348 Z M105.876812,5.76086957 L105.876812,5.76086957 C90.942029,12.4347826 78.1884058,2.95652174 71.9746377,1.64855072 C68.8825517,0.841379049 65.6432751,2.2802403 64.1692014,5.11566427 C62.6951278,7.95108823 63.3782288,11.429106 65.8152174,13.4963768 C65.533998,12.9242843 65.338661,12.3138561 65.2355072,11.6847826 C64.8781582,9.55616312 65.5839779,7.3872858 67.125648,5.8766658 C68.667318,4.3660458 70.8501052,3.70449426 72.9710145,4.10507246 C79.0398551,4.9384058 91.9528986,13.192029 105.876812,5.75 L105.876812,5.76086957 Z"/>
    <path fill="#caccb3" d="M115.57971,23.365942 L128.442029,23.365942 C132.003623,23.365942 133.438406,24.3333333 132.554348,27.192029 C131.782609,29.6884058 130.742754,30.1702899 129.365942,30.5326087 L129.347826,30.5942029 C131.228261,30.8369565 131.630435,31.884058 130.949275,34.076087 C129.960145,37.2789855 127.862319,37.9456522 125.307971,37.9456522 L111.068841,37.9456522 L115.57971,23.365942 Z M116.626812,34.4384058 L124.637681,34.4384058 C125.605072,34.4384058 126.315217,34.2173913 126.576087,33.3731884 C126.884058,32.3876812 126.307971,32.1666667 125.34058,32.1666667 L117.326087,32.1666667 L116.626812,34.4384058 Z M118.264493,29.1449275 L126.177536,29.1449275 C127,29.1449275 127.57971,28.8442029 127.833333,28.0181159 C128.086957,27.192029 127.702899,26.8695652 126.880435,26.8695652 L118.963768,26.8695652 L118.264493,29.1449275 Z"/>
    <polygon fill="#caccb3" points="34.058 46.377 33.402 46.377 33.402 40.623 34.058 40.623"/>
    <path fill="#caccb3" d="M35.2137681 40.6231884L36.2137681 40.6231884 36.2137681 41.3224638 35.2137681 41.3224638 35.2137681 40.6231884zM36.1687681 46.3768116L35.2687681 46.3768116 35.2687681 42.3514493 36.1687681 42.3514493 36.1687681 46.3768116zM37.1884058 42.3514493L37.1884058 41.5797101 37.8405797 41.2826087 37.8405797 42.3695652 38.7210145 42.3695652 38.7210145 42.8623188 37.8405797 42.8623188 37.8405797 45.326087C37.8405797 45.5833333 37.8405797 45.9094203 38.442029 45.9094203 38.4891304 45.9094203 38.5905797 45.9094203 38.7355072 45.8768116L38.7355072 46.3768116C38.5217391 46.3768116 38.3043478 46.4384058 38.0905797 46.4384058 37.4673913 46.4384058 37.1884058 46.1847826 37.1884058 45.7137681L37.1884058 42.8514493 36.5253623 42.8514493 36.5253623 42.3586957 37.1884058 42.3514493zM41.5978261 46.3768116L41.5978261 43.6521739C41.5978261 43.1557971 41.4384058 42.8043478 40.8731884 42.8043478 40.2173913 42.8043478 40.0507246 43.3333333 40.0507246 44.0108696L40.0507246 46.3768116 39.3985507 46.3768116 39.3985507 40.6231884 40.0507246 40.6231884 40.0507246 42.8695652 40.0833333 42.8695652C40.2785598 42.4564949 40.7168942 42.2154109 41.1702899 42.2717391 41.8586957 42.2717391 42.2572464 42.634058 42.2572464 43.5217391L42.2572464 46.3768116 41.5978261 46.3768116zM43.4202899 40.6231884L44.4202899 40.6231884 44.4202899 41.3224638 43.4202899 41.3224638 43.4202899 40.6231884zM44.3802899 46.3768116L43.5002899 46.3768116 43.5002899 42.3514493 44.4052899 42.3514493 44.3802899 46.3768116zM47.4637681 42.3514493L48.1195652 42.3514493 48.1195652 45.5398551C48.1195652 45.8188406 48.1195652 46.0978261 48.1594203 46.3768116L47.4637681 46.3768116 47.4637681 45.8913043 47.4637681 45.8913043C47.2498404 46.2499758 46.8595487 46.4658819 46.442029 46.4565217 45.7427536 46.4565217 45.3550725 46.0942029 45.3550725 45.4202899L45.3550725 42.3514493 46.0144928 42.3514493 46.0144928 45.1413043C46.0144928 45.6268116 46.2391304 45.9565217 46.7028986 45.9565217 46.9347858 45.9462564 47.1517707 45.8393265 47.3011779 45.6616903 47.450585 45.4840542 47.5187519 45.2519557 47.4891304 45.0217391L47.4637681 42.3514493zM51.3695652 46.3768116L51.3695652 43.5869565C51.3695652 43.1811594 51.2572464 42.8043478 50.7318841 42.8043478 50.5128323 42.8080271 50.3063406 42.9073019 50.1666667 43.076087 50.0660516 43.2566061 50.0136426 43.4600031 50.0144928 43.6666667L50.0144928 46.3768116 49.3586957 46.3768116 49.3586957 43.1884058C49.3586957 42.9094203 49.3586957 42.6304348 49.3188406 42.3514493L50 42.3514493 50 42.8550725 50 42.8550725C50.1931497 42.5059449 50.5555583 42.2840046 50.9543291 42.270638 51.3530999 42.2572714 51.7295571 42.4544452 51.9456522 42.7898551 52.1272356 42.436516 52.5070222 42.2307982 52.9021739 42.2717391 53.326087 42.2717391 53.9891304 42.365942 53.9891304 43.3152174L53.9891304 46.3768116 53.3333333 46.3768116 53.3333333 43.5869565C53.3333333 43.1811594 53.2246377 42.8043478 52.6956522 42.8043478 52.5168014 42.7774366 52.3354305 42.8334482 52.2028986 42.9565217 52.0403872 43.1616624 51.9602819 43.4200668 51.9782609 43.6811594L51.9782609 46.3768116 51.3695652 46.3768116zM57.7862319 46.3768116L57.1304348 46.3768116 57.1304348 40.6231884 57.7862319 40.6231884 57.7862319 42.7536232 57.807971 42.7536232C57.9978584 42.4469041 58.3349547 42.2625331 58.6956522 42.2681159 59.9927536 42.2681159 60.0253623 43.423913 60.0253623 44.442029 60.0253623 46.2137681 59.3731884 46.4673913 58.7246377 46.4673913 58.333874 46.4787548 57.9725682 46.2605545 57.8007246 45.9094203L57.8007246 45.9094203 57.7862319 46.3768116zM58.5108696 45.923913C59.3333333 45.923913 59.3333333 45.0471014 59.3333333 44.442029 59.3333333 43.3550725 59.2391304 42.8043478 58.5362319 42.8043478 57.8333333 42.8043478 57.7789855 43.6666667 57.7789855 44.2028986 57.7862319 44.8152174 57.7137681 45.923913 58.5181159 45.923913L58.5108696 45.923913zM63.0434783 45.7971014L63.0434783 45.7971014C62.8948642 46.2222281 62.4778356 46.4932967 62.0289855 46.4565217 61.1775362 46.4565217 60.942029 45.9057971 60.942029 45.134058 60.942029 43.9130435 62.1376812 43.8586957 63.0543478 43.884058 63.0543478 43.3478261 63.076087 42.7644928 62.3768116 42.7644928 62.1880484 42.7497304 62.0034506 42.8252606 61.8791746 42.9681066 61.7548987 43.1109525 61.7056375 43.3042256 61.7463768 43.4891304L61.0217391 43.4891304C61.0543478 42.5905797 61.5326087 42.2789855 62.384058 42.2789855 63.4202899 42.2789855 63.692029 42.8115942 63.692029 43.4891304L63.692029 45.4275362C63.6940285 45.7454012 63.7194597 46.0626863 63.7681159 46.3768116L63.0434783 46.3768116 63.0434783 45.7971014zM61.5942029 45.1811594C61.5942029 45.5724638 61.7862319 45.9057971 62.2246377 45.9057971 62.6630435 45.9057971 63.115942 45.6594203 63.0543478 44.3586957 62.4166667 44.384058 61.5942029 44.3297101 61.5942029 45.1811594zM64.9601449 42.3514493L64.9601449 41.5797101 65.6123188 41.2826087 65.6123188 42.3695652 66.4891304 42.3695652 66.4891304 42.8623188 65.6123188 42.8623188 65.6123188 45.326087C65.6123188 45.5833333 65.6123188 45.9094203 66.2101449 45.9094203 66.2572464 45.9094203 66.3623188 45.9094203 66.5072464 45.8768116L66.5072464 46.3768116C66.2898551 46.3768116 66.076087 46.4384058 65.8586957 46.4384058 65.2391304 46.4384058 64.9601449 46.1847826 64.9601449 45.7137681L64.9601449 42.8514493 64.2971014 42.8514493 64.2971014 42.3586957 64.9601449 42.3514493zM67.4130435 42.3514493L67.4130435 41.5797101 68.0688406 41.2826087 68.0688406 42.3695652 68.9456522 42.3695652 68.9456522 42.8623188 68.0688406 42.8623188 68.0688406 45.326087C68.0688406 45.5833333 68.0688406 45.9094203 68.6666667 45.9094203 68.7137681 45.9094203 68.8188406 45.9094203 68.9601449 45.8768116L68.9601449 46.3768116C68.7463768 46.3768116 68.5326087 46.4384058 68.3152174 46.4384058 67.692029 46.4384058 67.4130435 46.1847826 67.4130435 45.7137681L67.4130435 42.8514493 66.7536232 42.8514493 66.7536232 42.3586957 67.4130435 42.3514493zM70.2898551 44.5652174C70.2898551 45.6884058 70.5942029 45.9130435 71.1050725 45.9130435 71.2999288 45.9065208 71.4839362 45.8217539 71.6155248 45.6778929 71.7471133 45.5340319 71.8151801 45.343215 71.8043478 45.1485507L72.5289855 45.1485507C72.5289855 46.0398551 71.9710145 46.4456522 71.1268116 46.4456522 70.2826087 46.4456522 69.5978261 46.192029 69.5978261 44.4130435 69.5978261 43.2318841 69.7318841 42.2608696 71.1268116 42.2608696 72.2753623 42.2608696 72.576087 42.8913043 72.576087 44.2210145L72.576087 44.5833333 70.2898551 44.5652174zM71.8623188 44.0724638C71.8623188 42.8985507 71.5362319 42.7536232 71.057971 42.7536232 70.6413043 42.7536232 70.2971014 42.9528986 70.2898551 44.0724638L71.8623188 44.0724638zM74.3804348 42.9565217L74.3985507 42.9565217C74.6666667 42.3442029 75.0036232 42.2717391 75.6413043 42.2717391L75.6413043 42.9492754 75.4637681 42.923913C75.4058674 42.9198754 75.3477558 42.9198754 75.2898551 42.923913 74.5652174 42.923913 74.3804348 43.4746377 74.3804348 44.0108696L74.3804348 46.3768116 73.7282609 46.3768116 73.7282609 42.3514493 74.3804348 42.3514493 74.3804348 42.9565217zM76.3804348 40.6231884L77.3804348 40.6231884 77.3804348 41.3224638 76.3804348 41.3224638 76.3804348 40.6231884zM77.3404348 46.3768116L76.4354348 46.3768116 76.4354348 42.3514493 77.3404348 42.3514493 77.3404348 46.3768116zM78.923913 44.5652174C78.923913 45.6884058 79.2282609 45.9130435 79.7391304 45.9130435 79.9339867 45.9065208 80.1179942 45.8217539 80.2495827 45.6778929 80.3811712 45.5340319 80.449238 45.343215 80.4384058 45.1485507L81.1630435 45.1485507C81.1630435 46.0398551 80.6050725 46.4456522 79.7608696 46.4456522 78.9166667 46.4456522 78.2318841 46.192029 78.2318841 44.4130435 78.2318841 43.2318841 78.365942 42.2608696 79.7608696 42.2608696 80.9094203 42.2608696 81.2101449 42.8913043 81.2101449 44.2210145L81.2101449 44.5833333 78.923913 44.5652174zM80.4963768 44.0724638C80.4963768 42.8985507 80.1666667 42.7536232 79.6884058 42.7536232 79.2753623 42.7536232 78.9311594 42.9528986 78.923913 44.0724638L80.4963768 44.0724638zM83.5398551 46.4565217C82.6702899 46.4565217 82.1304348 46.0942029 82.1521739 45.1485507L82.8768116 45.1485507C82.8768116 45.3804348 82.8768116 45.923913 83.5471014 45.923913 83.7236824 45.948359 83.9021044 45.8941693 84.0352644 45.77565 84.1684244 45.6571306 84.2429368 45.4861954 84.2391304 45.307971 84.2391304 44.5833333 82.2318841 44.5833333 82.2318841 43.3731884 82.2318841 42.9492754 82.4855072 42.2862319 83.615942 42.2862319 84.3405797 42.2862319 84.9492754 42.6485507 84.8949275 43.4275362L84.1702899 43.4275362C84.1964118 43.2520776 84.1391842 43.0744771 84.0155379 42.9472777 83.8918916 42.8200784 83.7159831 42.7578436 83.5398551 42.7789855 83.3835416 42.7592896 83.2262773 42.8074833 83.1078381 42.9113774 82.9893988 43.0152715 82.9211269 43.1649165 82.9202899 43.3224638 82.9202899 44.0471014 84.9275362 44.0181159 84.9275362 45.2427536 84.942029 46.115942 84.3369565 46.4565217 83.5398551 46.4565217z"/>
  </g>
</svg>
